<svg version="1.1" xmlns="http://www.w3.org/2000/svg" viewBox="0 0 888.6117432278711 597.7626201376365" width="888.6117432278711" height="597.7626201376365">
  <!-- svg-source:excalidraw -->
  
  <defs>
    <style>
      @font-face {
        font-family: "Virgil";
        src: url("https://excalidraw.com/Virgil.woff2");
      }
      @font-face {
        font-family: "Cascadia";
        src: url("https://excalidraw.com/Cascadia.woff2");
      }
    </style>
  </defs>
  <rect x="0" y="0" width="888.6117432278711" height="597.7626201376365" fill="#ffffff"></rect><g stroke-linecap="round" transform="translate(353.2455574389586 13.488267860152746) rotate(0 103.25272866049966 27.906142881216113)"><path d="M-0.74 1.53 C47.45 1.85, 92.24 1.99, 207.28 0.12 M-0.19 -0.56 C54.07 -1.98, 107.86 -0.88, 207.26 -0.72 M207.68 -1.72 C205.32 15.21, 206.01 33.02, 205.01 54.58 M205.79 -0.67 C205.63 21.38, 205.45 44.03, 206.61 55.15 M206.39 56.98 C159.46 58.73, 114.39 59.12, 1.14 54.3 M207.04 56.3 C135.89 58.07, 66.82 57.63, 0.25 55.82 M1.96 56.23 C-1.66 42.53, 1.48 28.38, -0.43 1.98 M0.91 55.44 C-0.02 34.5, 0.44 13.64, 0.46 0.73" stroke="#000000" stroke-width="1" fill="none"></path></g><g stroke-linecap="round" transform="translate(681.8403898652784 10) rotate(0 93.83440543808914 29.301450025276893)"><path d="M-1.63 1.67 C69.92 -2.86, 138.08 -2.01, 189.4 1.2 M0.82 0.26 C66.91 -1.41, 132.78 -1.62, 187.82 0.98 M189.04 0.61 C186.72 20.79, 188.74 35.66, 185.81 60.43 M187.56 0.18 C187.8 16.16, 187.84 30.93, 188.53 58.49 M186.09 57.02 C127.47 57.24, 68.68 58.57, 0.19 57.71 M187.59 58.31 C129.17 59.36, 70.23 59.81, -0.18 58.83 M1.12 56.91 C0.32 34.07, 2.12 10.27, 0.17 0.88 M-0.58 59.48 C-0.29 45.98, -0.02 34.42, 0.91 -0.52" stroke="#000000" stroke-width="1" fill="none"></path></g><g transform="translate(751.6057470683184 26.743685728729815) rotate(0 11.860110724516858 8.720669650380046)"><text x="0" y="12.44133930076006" font-family="Virgil, Segoe UI Emoji" font-size="13.95307144060805px" fill="#000000" text-anchor="start" style="white-space: pre;" direction="ltr">DB</text></g><g transform="translate(438.24376463357316 34.53430001685092) rotate(0 21.5 8.5)"><text x="0" y="12" font-family="Virgil, Segoe UI Emoji" font-size="13.953071440608047px" fill="#000000" text-anchor="start" style="white-space: pre;" direction="ltr">Server</text></g><g stroke-linecap="round"><g transform="translate(120.1679121058412 140.57034411096242) rotate(0 162.96036621756173 -1.6786449636490488)"><path d="M0.66 -1.18 C55.07 -1.58, 272.21 -2.21, 326.37 -2.26 M-0.45 0.82 C53.83 0.04, 271.35 -3.5, 325.53 -4.17" stroke="#000000" stroke-width="1" fill="none"></path></g><g transform="translate(120.1679121058412 140.57034411096242) rotate(0 162.96036621756173 -1.6786449636490488)"><path d="M295.52 6.83 C306.34 2.35, 315.81 -1.84, 324.08 -6.17 M296.71 6.14 C303.33 3.79, 309.74 1, 325.92 -3.95" stroke="#000000" stroke-width="1" fill="none"></path></g><g transform="translate(120.1679121058412 140.57034411096242) rotate(0 162.96036621756173 -1.6786449636490488)"><path d="M295.22 -13.69 C306.15 -12.17, 315.7 -10.37, 324.08 -6.17 M296.41 -14.38 C303.26 -11.94, 309.74 -9.94, 325.92 -3.95" stroke="#000000" stroke-width="1" fill="none"></path></g></g><g stroke-linecap="round" transform="translate(449.5217503791541 110.4621143723781) rotate(0 8.418323222410436 94.30914835300774)"><path d="M-1.24 0.16 C4.74 1.17, 14.13 -1.55, 17.94 1.59 M0.57 0.81 C5.25 0.04, 9.81 0.13, 16.7 0.15 M16.42 1.52 C18.23 43.97, 17.67 82.74, 18.45 189.11 M16.57 -0.58 C14.45 39.02, 15.91 78.62, 16.41 189.27 M18.24 187.11 C12.57 190, 7.5 188.69, 0.85 190.08 M16.52 189.33 C12.28 188.92, 9.4 189.35, -0.81 188.94 M-1.66 189.52 C-2.19 116.93, -2.09 43.07, -1.45 -0.75 M0.32 188.63 C-2.29 133.16, -0.94 78.62, 0.21 -0.07" stroke="#000000" stroke-width="1" fill="none"></path></g><g stroke-linecap="round"><g transform="translate(460.6673633905018 71.81075266273092) rotate(0 -0.23064638588203934 19.071568057295963)"><path d="M0.06 -1.16 C-0.05 5.48, -0.39 32.65, -0.52 39.3" stroke="#000000" stroke-width="1.5" fill="none" stroke-dasharray="8 9"></path></g></g><g stroke-linecap="round"><g transform="translate(457.40532494302056 304.4245695868568) rotate(0 0.2709253513685894 139.24441943552657)"><path d="M-0.45 0.66 C-0.36 47.01, 0.96 231.86, 0.99 277.83" stroke="#000000" stroke-width="1.5" fill="none" stroke-dasharray="8 9"></path></g></g><g stroke-linecap="round"><g transform="translate(446.3418197607184 278.3490644548289) rotate(0 -165.84160887239346 3.8282810341484605)"><path d="M-0.35 0.84 C-55.5 2.14, -276.2 6.09, -331.33 6.82" stroke="#000000" stroke-width="1.5" fill="none" stroke-dasharray="8 9"></path></g><g transform="translate(446.3418197607184 278.3490644548289) rotate(0 -165.84160887239346 3.8282810341484605)"><path d="M-301.91 -5.43 C-308.96 -2.35, -319.08 3.14, -329.89 6.08" stroke="#000000" stroke-width="1.5" fill="none"></path></g><g transform="translate(446.3418197607184 278.3490644548289) rotate(0 -165.84160887239346 3.8282810341484605)"><path d="M-301.58 15.09 C-308.55 12.74, -318.76 12.82, -329.89 6.08" stroke="#000000" stroke-width="1.5" fill="none"></path></g></g><g stroke-linecap="round"><g transform="translate(471.12048528821606 196.27625270536976) rotate(0 151.26098900782176 -0.17946113605722758)"><path d="M0.88 -1.16 C51.16 -1.19, 250.55 -1.11, 300.53 -1.25 M-0.12 0.85 C50.62 1.09, 252.1 0.45, 302.64 0.09" stroke="#000000" stroke-width="1" fill="none"></path></g><g transform="translate(471.12048528821606 196.27625270536976) rotate(0 151.26098900782176 -0.17946113605722758)"><path d="M272.57 8.57 C279.69 6.63, 284.1 7.96, 304.51 -0.42 M273.74 10.9 C281.55 7.29, 289.61 4.72, 302.23 0.17" stroke="#000000" stroke-width="1" fill="none"></path></g><g transform="translate(471.12048528821606 196.27625270536976) rotate(0 151.26098900782176 -0.17946113605722758)"><path d="M272.47 -11.95 C279.43 -9.74, 283.86 -4.25, 304.51 -0.42 M273.65 -9.62 C281.6 -8.04, 289.68 -5.43, 302.23 0.17" stroke="#000000" stroke-width="1" fill="none"></path></g></g><g transform="translate(552.0768254676237 174.64624299917546) rotate(0 31 8.5)"><text x="0" y="12" font-family="Virgil, Segoe UI Emoji" font-size="13.953071440608051px" fill="#000000" text-anchor="start" style="white-space: pre;" direction="ltr">Find user</text></g><g stroke-linecap="round"><g transform="translate(793.2272124697673 217.89334793625085) rotate(0 28.216617492671702 0.41440859619063986)"><path d="M0.45 -0.64 C9.66 -0.92, 45.53 -0.78, 54.95 -0.7 M-0.78 1.64 C8.84 1.41, 47.6 0.56, 57.21 0.46" stroke="#000000" stroke-width="1" fill="none"></path></g></g><g stroke-linecap="round"><g transform="translate(850.2300575696162 232.29311437199453) rotate(0 0.04531980254074597 -6.637775032263619)"><path d="M0.51 0.16 C0.82 -2.25, 0.83 -11.16, 0.67 -13.43 M-0.68 -0.8 C-0.37 -2.5, 0.2 -10.08, 0.07 -11.99" stroke="#000000" stroke-width="1" fill="none"></path></g></g><g stroke-linecap="round"><g transform="translate(850.0292159748967 235.78037088952897) rotate(0 -29.19089274712212 0.8548104403958519)"><path d="M-0.5 -0.15 C-10.38 0.36, -50 2.48, -59.82 2.98 M1.44 -1.27 C-8.04 -1.06, -47.34 1.04, -57.67 1.41" stroke="#000000" stroke-width="1" fill="none"></path></g><g transform="translate(850.0292159748967 235.78037088952897) rotate(0 -29.19089274712212 0.8548104403958519)"><path d="M-30.78 -11.67 C-35.69 -8.26, -42.85 -2.77, -57.27 2.54 M-30.83 -9.94 C-40.14 -7.02, -49.22 -3.16, -58.34 1.22" stroke="#000000" stroke-width="1" fill="none"></path></g><g transform="translate(850.0292159748967 235.78037088952897) rotate(0 -29.19089274712212 0.8548104403958519)"><path d="M-29.87 8.41 C-35 6.71, -42.4 7.09, -57.27 2.54 M-29.93 10.14 C-39.59 6.39, -48.98 3.57, -58.34 1.22" stroke="#000000" stroke-width="1" fill="none"></path></g></g><g stroke-linecap="round" transform="translate(774.628314945322 188.59931443978303) rotate(0 8.06949643639524 52.7996572198916)"><path d="M0.82 0.71 C5.64 -0.25, 11.72 -0.37, 15.85 -0.97 M0.05 -0.69 C6.4 -0.11, 11.99 -0.42, 16.62 0.53 M15.98 -1.84 C17.66 40.61, 15.6 76.65, 16.03 106.4 M17.08 -0.04 C16.49 31.96, 16.14 65.72, 16.93 106.26 M16.78 104.75 C10.86 106.22, 8.92 105.18, -0.69 105.8 M16.76 106.1 C10.4 105.81, 4.02 105.77, -0.27 104.98 M-1.51 103.91 C-0.45 75.2, -2.55 44.79, 0.58 0.17 M-0.77 105.06 C0.93 71.92, -0.46 39.83, -0.6 -0.03" stroke="#000000" stroke-width="1" fill="none"></path></g><g stroke-linecap="round"><g transform="translate(781.0020960611574 69.95507094148184) rotate(0 0.4634183508828471 58.234540037784086)"><path d="M-0.15 -0.88 C0.2 18.75, 1.01 97.51, 1.08 117.35" stroke="#000000" stroke-width="1.5" fill="none" stroke-dasharray="8 9"></path></g></g><g stroke-linecap="round"><g transform="translate(783.6528378648128 300.12858197517545) rotate(0 -0.3738342915068813 144.2469415039972)"><path d="M0.94 0.86 C0.72 48.91, -1.3 239.84, -1.68 287.63" stroke="#000000" stroke-width="1.5" fill="none" stroke-dasharray="8 9"></path></g></g><g stroke-linecap="round"><g transform="translate(769.3866592537712 267.8086565037397) rotate(0 -150.2642767411908 1.2756562111417793)"><path d="M-0.12 0.27 C-50.3 0.72, -250.22 2.07, -300.41 2.28" stroke="#000000" stroke-width="1.5" fill="none" stroke-dasharray="8 9"></path></g><g transform="translate(769.3866592537712 267.8086565037397) rotate(0 -150.2642767411908 1.2756562111417793)"><path d="M-271.83 -8.25 C-280.95 -5.94, -292.31 -0.25, -301.19 3.69" stroke="#000000" stroke-width="1.5" fill="none"></path></g><g transform="translate(769.3866592537712 267.8086565037397) rotate(0 -150.2642767411908 1.2756562111417793)"><path d="M-271.71 12.28 C-280.8 7.23, -292.2 5.58, -301.19 3.69" stroke="#000000" stroke-width="1.5" fill="none"></path></g></g><g transform="translate(571.773582636961 233.78165026119473) rotate(0 96 17)"><text x="0" y="12" font-family="Virgil, Segoe UI Emoji" font-size="13.953071440608054px" fill="#000000" text-anchor="start" style="white-space: pre;" direction="ltr">User is found and password</text><text x="0" y="29" font-family="Virgil, Segoe UI Emoji" font-size="13.953071440608054px" fill="#000000" text-anchor="start" style="white-space: pre;" direction="ltr">is valid</text></g><g transform="translate(258.2717109267322 258.1517003201743) rotate(0 36 8.5)"><text x="0" y="12" font-family="Virgil, Segoe UI Emoji" font-size="13.953071440608062px" fill="#000000" text-anchor="start" style="white-space: pre;" direction="ltr">Authorized</text></g><g stroke-linecap="round" transform="translate(10 19.767150008426142) rotate(0 96.62501972621078 27.557316095200918)"><path d="M0.99 -1.82 C52.43 3.34, 100.9 0.74, 192.07 0.7 M-0.73 0.35 C67.45 0.18, 136.15 0.59, 193.75 0.7 M194.65 -1.2 C194.1 16.55, 194.6 36.44, 193.01 55.4 M193.82 0.48 C193.26 15.32, 194.52 29.59, 193 55.23 M194.61 55.05 C143.27 53.47, 92.8 51.6, 0.74 55.96 M192.41 54.84 C153.8 54.81, 114.44 53.76, 0.51 55.21 M1.25 56.41 C0.49 42.46, -0.12 31.2, -0.92 0.61 M-0.5 55.84 C0.34 33.9, 0.67 12.22, -0.01 0.77" stroke="#000000" stroke-width="1" fill="none"></path></g><g transform="translate(94.4160822156789 37.20848930918578) rotate(0 8.023016078349656 8.720669650380046)"><text x="0" y="12.44133930076006" font-family="Virgil, Segoe UI Emoji" font-size="13.953071440608047px" fill="#000000" text-anchor="start" style="white-space: pre;" direction="ltr">UI</text></g><g stroke-linecap="round"><g transform="translate(109.58301751558679 74.1066554020233) rotate(0 -0.6022287057542144 12.835591490019794)"><path d="M-1.09 -0.4 C-1.29 3.84, -0.06 21.78, -0.1 26.07" stroke="#000000" stroke-width="1.5" fill="none" stroke-dasharray="8 9"></path></g></g><g transform="translate(253.481096638611 116.0433429486211) rotate(0 27.208489309185723 8.720669650380046)"><text x="0" y="12.44133930076006" font-family="Virgil, Segoe UI Emoji" font-size="13.953071440608058px" fill="#000000" text-anchor="start" style="white-space: pre;" direction="ltr">Request</text></g><g stroke-linecap="round"><g transform="translate(48.6117432278711 326.6891557641584) rotate(0 412.2208366595209 -0.09360826835037983)"><path d="M1.17 0.65 C138.4 0.42, 686.23 -0.54, 823.27 -0.84" stroke="#000000" stroke-width="1.5" fill="none" stroke-dasharray="8 9"></path></g></g><g stroke-linecap="round"><g transform="translate(782.6117432278711 512.6891557641584) rotate(0 -163.2074822701514 -0.276662477105873)"><path d="M1.12 0.14 C-53.61 -0.17, -272.95 -0.58, -327.53 -0.7" stroke="#000000" stroke-width="1.5" fill="none" stroke-dasharray="8 9"></path></g><g transform="translate(782.6117432278711 512.6891557641584) rotate(0 -163.2074822701514 -0.276662477105873)"><path d="M-299.08 -11.79 C-310.87 -5.87, -321.12 -2.31, -326.68 -2.67" stroke="#000000" stroke-width="1.5" fill="none"></path></g><g transform="translate(782.6117432278711 512.6891557641584) rotate(0 -163.2074822701514 -0.276662477105873)"><path d="M-299.13 8.73 C-311.1 7.02, -321.34 2.95, -326.68 -2.67" stroke="#000000" stroke-width="1.5" fill="none"></path></g></g><g stroke-linecap="round" transform="translate(49.6117432278711 93.68915576415839) rotate(0 414.5 246.5)"><path d="M0.25 0.77 C226.98 2.76, 454.61 2.22, 829.68 0.28 M-0.38 -0.17 C280.05 1.25, 560.85 1.07, 828.84 0.1 M829.39 0.72 C829.76 169.79, 828.38 341.19, 829.28 492.44 M829.14 -0.24 C828.85 170.43, 828.65 340.35, 828.82 492.64 M829.26 492.55 C636.4 489.91, 443.1 490.89, -0.18 493.29 M828.69 493.21 C508.28 494.94, 187.12 494.77, -0.2 493.36 M0.02 492.27 C1 305.02, 2.16 115.89, 0.75 0.13 M-0.3 492.6 C-1.65 350.48, -1.42 208.16, -0.23 0.4" stroke="#000000" stroke-width="1" fill="none"></path></g><g transform="translate(544.6117432278711 487.6891557641584) rotate(0 70 10)"><text x="0" y="14" font-family="Virgil, Segoe UI Emoji" font-size="16px" fill="#000000" text-anchor="start" style="white-space: pre;" direction="ltr">User is not found</text></g><g stroke-linecap="round"><g transform="translate(458.6117432278711 548.6891557641584) rotate(0 -177.06355396136644 1.3867308817803803)"><path d="M-0.22 -0.99 C-59.25 -0.29, -294.82 2.91, -353.9 3.76" stroke="#000000" stroke-width="1.5" fill="none" stroke-dasharray="8 9"></path></g><g transform="translate(458.6117432278711 548.6891557641584) rotate(0 -177.06355396136644 1.3867308817803803)"><path d="M-327.5 -6.73 C-335.27 -4.74, -343.61 -1.06, -352.24 4.11" stroke="#000000" stroke-width="1.5" fill="none"></path></g><g transform="translate(458.6117432278711 548.6891557641584) rotate(0 -177.06355396136644 1.3867308817803803)"><path d="M-327.22 13.79 C-335 9.22, -343.43 6.33, -352.24 4.11" stroke="#000000" stroke-width="1.5" fill="none"></path></g></g><g transform="translate(199.6117432278711 503.6891557641584) rotate(0 105.5 20)"><text x="0" y="14" font-family="Virgil, Segoe UI Emoji" font-size="16px" fill="#000000" text-anchor="start" style="white-space: pre;" direction="ltr">There is no user with such</text><text x="0" y="34" font-family="Virgil, Segoe UI Emoji" font-size="16px" fill="#000000" text-anchor="start" style="white-space: pre;" direction="ltr">credentials</text></g><g transform="translate(496.6117432278711 103.68915576415839) rotate(0 64.5 10)"><text x="0" y="14" font-family="Virgil, Segoe UI Emoji" font-size="16px" fill="#000000" text-anchor="start" style="white-space: pre;" direction="ltr">Valid credentials</text></g><g transform="translate(501.6117432278711 332.6891557641584) rotate(0 72.5 10)"><text x="0" y="14" font-family="Virgil, Segoe UI Emoji" font-size="16px" fill="#000000" text-anchor="start" style="white-space: pre;" direction="ltr">Invalid credentials</text></g><g stroke-linecap="round"><g transform="translate(783.6117432278711 410.6891557641584) rotate(0 -162.50430455580354 0.6147868074476719)"><path d="M0.96 0.33 C-53.35 0.37, -271.33 0.47, -325.97 0.9" stroke="#000000" stroke-width="1.5" fill="none" stroke-dasharray="8 9"></path></g><g transform="translate(783.6117432278711 410.6891557641584) rotate(0 -162.50430455580354 0.6147868074476719)"><path d="M-297.27 -7.75 C-307.9 -5.98, -312.86 -2.46, -325.36 0.05" stroke="#000000" stroke-width="1.5" fill="none"></path></g><g transform="translate(783.6117432278711 410.6891557641584) rotate(0 -162.50430455580354 0.6147868074476719)"><path d="M-297.19 12.77 C-307.96 8.49, -312.95 5.95, -325.36 0.05" stroke="#000000" stroke-width="1.5" fill="none"></path></g></g><g transform="translate(520.6117432278711 366.6891557641584) rotate(0 109.5 20)"><text x="0" y="14" font-family="Virgil, Segoe UI Emoji" font-size="16px" fill="#000000" text-anchor="start" style="white-space: pre;" direction="ltr">User is found but password</text><text x="0" y="34" font-family="Virgil, Segoe UI Emoji" font-size="16px" fill="#000000" text-anchor="start" style="white-space: pre;" direction="ltr">is invalid</text></g><g stroke-linecap="round"><g transform="translate(455.6117432278711 435.6891557641584) rotate(0 -170.9745852030814 0.0976620592176971)"><path d="M0.72 -0.96 C-56.2 -0.68, -285.21 0.8, -342.67 1.16" stroke="#000000" stroke-width="1.5" fill="none" stroke-dasharray="8 9"></path></g><g transform="translate(455.6117432278711 435.6891557641584) rotate(0 -170.9745852030814 0.0976620592176971)"><path d="M-316.14 -8.73 C-321.77 -8.71, -327.5 -3.82, -343.7 2.08" stroke="#000000" stroke-width="1.5" fill="none"></path></g><g transform="translate(455.6117432278711 435.6891557641584) rotate(0 -170.9745852030814 0.0976620592176971)"><path d="M-316.01 11.79 C-321.57 7.6, -327.33 8.27, -343.7 2.08" stroke="#000000" stroke-width="1.5" fill="none"></path></g></g><g transform="translate(192.6117432278711 410.6891557641584) rotate(0 65.5 10)"><text x="0" y="14" font-family="Virgil, Segoe UI Emoji" font-size="16px" fill="#000000" text-anchor="start" style="white-space: pre;" direction="ltr">Invalid password</text></g><g stroke-linecap="round" transform="translate(93.6117432278711 102.68915576415839) rotate(0 8.5 234.5)"><path d="M-1.57 1.08 C4.92 1.23, 9.63 -0.63, 15.55 -0.16 M-0.51 0.4 C5.81 0.79, 12.65 -0.59, 16.6 0.81 M16.15 0.69 C18.16 167.04, 17.9 335.25, 17.46 469.55 M16.79 0.1 C15.01 186.97, 14.6 374.61, 17.26 469.16 M16.78 469.58 C13.37 469.38, 8.72 469.82, -1.64 468.52 M17.08 469.13 C12.83 469.68, 8.73 469.12, 0.44 469.77 M0.09 469.44 C0.33 314.42, -1 158.33, -0.42 -0.1 M0.43 469.03 C1.86 309.87, 1.61 151.11, -0.4 0.13" stroke="#000000" stroke-width="1" fill="none"></path></g><g stroke-linecap="round"><g transform="translate(103.6117432278711 574.6891557641584) rotate(0 1.0596837831436687 5.56370360031724)"><path d="M0.89 -0.68 C1.16 1.24, 1.3 9.68, 1.2 11.81" stroke="#000000" stroke-width="1.5" fill="none" stroke-dasharray="8 9"></path></g></g></svg>
