<svg version="1.1" xmlns="http://www.w3.org/2000/svg" viewBox="0 0 888.6117432278711 596.6891557641584" width="888.6117432278711" height="596.6891557641584">
  <!-- svg-source:excalidraw -->
  
  <defs>
    <style>
      @font-face {
        font-family: "Virgil";
        src: url("https://excalidraw.com/Virgil.woff2");
      }
      @font-face {
        font-family: "Cascadia";
        src: url("https://excalidraw.com/Cascadia.woff2");
      }
    </style>
  </defs>
  <rect x="0" y="0" width="888.6117432278711" height="596.6891557641584" fill="#ffffff"></rect><g stroke-linecap="round" transform="translate(353.2455574389586 13.488267860152746) rotate(0 103.25272866049966 27.906142881216113)"><path d="M-0.74 1.53 C47.45 1.85, 92.24 1.99, 207.28 0.12 M-0.19 -0.56 C54.07 -1.98, 107.86 -0.88, 207.26 -0.72 M207.68 -1.72 C205.32 15.21, 206.01 33.02, 205.01 54.58 M205.79 -0.67 C205.63 21.38, 205.45 44.03, 206.61 55.15 M206.39 56.98 C159.46 58.73, 114.39 59.12, 1.14 54.3 M207.04 56.3 C135.89 58.07, 66.82 57.63, 0.25 55.82 M1.96 56.23 C-1.66 42.53, 1.48 28.38, -0.43 1.98 M0.91 55.44 C-0.02 34.5, 0.44 13.64, 0.46 0.73" stroke="#000000" stroke-width="1" fill="none"></path></g><g stroke-linecap="round" transform="translate(681.8403898652784 10) rotate(0 93.83440543808914 29.301450025276893)"><path d="M-1.63 1.67 C69.92 -2.86, 138.08 -2.01, 189.4 1.2 M0.82 0.26 C66.91 -1.41, 132.78 -1.62, 187.82 0.98 M189.04 0.61 C186.72 20.79, 188.74 35.66, 185.81 60.43 M187.56 0.18 C187.8 16.16, 187.84 30.93, 188.53 58.49 M186.09 57.02 C127.47 57.24, 68.68 58.57, 0.19 57.71 M187.59 58.31 C129.17 59.36, 70.23 59.81, -0.18 58.83 M1.12 56.91 C0.32 34.07, 2.12 10.27, 0.17 0.88 M-0.58 59.48 C-0.29 45.98, -0.02 34.42, 0.91 -0.52" stroke="#000000" stroke-width="1" fill="none"></path></g><g transform="translate(751.6057470683184 26.743685728729815) rotate(0 11.860110724516858 8.720669650380046)"><text x="0" y="12.44133930076006" font-family="Virgil, Segoe UI Emoji" font-size="13.95307144060805px" fill="#000000" text-anchor="start" style="white-space: pre;" direction="ltr">DB</text></g><g transform="translate(438.24376463357316 34.53430001685092) rotate(0 21.5 8.5)"><text x="0" y="12" font-family="Virgil, Segoe UI Emoji" font-size="13.953071440608047px" fill="#000000" text-anchor="start" style="white-space: pre;" direction="ltr">Server</text></g><g stroke-linecap="round" transform="translate(10 19.767150008426142) rotate(0 96.62501972621078 27.557316095200918)"><path d="M0.99 -1.82 C52.43 3.34, 100.9 0.74, 192.07 0.7 M-0.73 0.35 C67.45 0.18, 136.15 0.59, 193.75 0.7 M194.65 -1.2 C194.1 16.55, 194.6 36.44, 193.01 55.4 M193.82 0.48 C193.26 15.32, 194.52 29.59, 193 55.23 M194.61 55.05 C143.27 53.47, 92.8 51.6, 0.74 55.96 M192.41 54.84 C153.8 54.81, 114.44 53.76, 0.51 55.21 M1.25 56.41 C0.49 42.46, -0.12 31.2, -0.92 0.61 M-0.5 55.84 C0.34 33.9, 0.67 12.22, -0.01 0.77" stroke="#000000" stroke-width="1" fill="none"></path></g><g transform="translate(94.4160822156789 37.20848930918578) rotate(0 8.023016078349656 8.720669650380046)"><text x="0" y="12.44133930076006" font-family="Virgil, Segoe UI Emoji" font-size="13.953071440608047px" fill="#000000" text-anchor="start" style="white-space: pre;" direction="ltr">UI</text></g><g stroke-linecap="round"><g transform="translate(109.58301751558679 74.1066554020233) rotate(0 -0.6022287057542144 12.835591490019794)"><path d="M-1.09 -0.4 C-1.29 3.84, -0.06 21.78, -0.1 26.07" stroke="#000000" stroke-width="1.5" fill="none" stroke-dasharray="8 9"></path></g></g><g stroke-linecap="round" transform="translate(49.6117432278711 93.68915576415839) rotate(0 414.5 246.5)"><path d="M0.25 0.77 C226.98 2.76, 454.61 2.22, 829.68 0.28 M-0.38 -0.17 C280.05 1.25, 560.85 1.07, 828.84 0.1 M829.39 0.72 C829.76 169.79, 828.38 341.19, 829.28 492.44 M829.14 -0.24 C828.85 170.43, 828.65 340.35, 828.82 492.64 M829.26 492.55 C636.4 489.91, 443.1 490.89, -0.18 493.29 M828.69 493.21 C508.28 494.94, 187.12 494.77, -0.2 493.36 M0.02 492.27 C1 305.02, 2.16 115.89, 0.75 0.13 M-0.3 492.6 C-1.65 350.48, -1.42 208.16, -0.23 0.4" stroke="#000000" stroke-width="1" fill="none"></path></g><g stroke-linecap="round" transform="translate(93.6117432278711 102.68915576415839) rotate(0 8.5 234.5)"><path d="M-1.57 1.08 C4.92 1.23, 9.63 -0.63, 15.55 -0.16 M-0.51 0.4 C5.81 0.79, 12.65 -0.59, 16.6 0.81 M16.15 0.69 C18.16 167.04, 17.9 335.25, 17.46 469.55 M16.79 0.1 C15.01 186.97, 14.6 374.61, 17.26 469.16 M16.78 469.58 C13.37 469.38, 8.72 469.82, -1.64 468.52 M17.08 469.13 C12.83 469.68, 8.73 469.12, 0.44 469.77 M0.09 469.44 C0.33 314.42, -1 158.33, -0.42 -0.1 M0.43 469.03 C1.86 309.87, 1.61 151.11, -0.4 0.13" stroke="#000000" stroke-width="1" fill="none"></path></g><g stroke-linecap="round"><g transform="translate(103.6117432278711 574.6891557641584) rotate(0 1.0596837831436687 5.56370360031724)"><path d="M0.89 -0.68 C1.16 1.24, 1.3 9.68, 1.2 11.81" stroke="#000000" stroke-width="1.5" fill="none" stroke-dasharray="8 9"></path></g></g><g stroke-linecap="round" transform="translate(447.611712710293 105.68915576415839) rotate(0 8.5 228.5)"><path d="M0.3 1.56 C2.71 -1.22, 10 -1.62, 17.04 0.67 M-0.14 0.72 C3.15 0.84, 7.66 0.83, 16.39 0.76 M17.51 0.57 C16.8 135.73, 16.31 272.75, 17.16 456.18 M17.34 0.46 C17.64 163.92, 17.6 329.11, 16.69 457.08 M16.06 456.64 C9.47 455.96, 3.45 457.91, 0.07 457.31 M16.88 457.72 C11.87 456.85, 6.54 456.53, 0.6 457.44 M0.8 457.21 C1.46 290, 1.3 120.77, -0.67 0.81 M-0.42 457.14 C-0.74 365.42, -0.68 273.4, -0.36 0.24" stroke="#000000" stroke-width="1" fill="none"></path></g><g stroke-linecap="round"><g transform="translate(111.61171271029298 173.6891557641584) rotate(0 168.84918012022973 -2.1734745533438513)"><path d="M-0.7 -0.47 C55.86 -0.66, 281.8 -1.68, 338.4 -2.18 M1.13 -1.76 C57.65 -2.19, 281.42 -3.76, 337.66 -3.88" stroke="#000000" stroke-width="1" fill="none"></path></g><g transform="translate(111.61171271029298 173.6891557641584) rotate(0 168.84918012022973 -2.1734745533438513)"><path d="M308.74 7.19 C317.15 5.92, 321.1 3.74, 336.49 -4.96 M309.03 6 C317.83 4.39, 325.33 1.55, 337.75 -3.05" stroke="#000000" stroke-width="1" fill="none"></path></g><g transform="translate(111.61171271029298 173.6891557641584) rotate(0 168.84918012022973 -2.1734745533438513)"><path d="M308.64 -13.33 C316.89 -10.1, 320.87 -7.77, 336.49 -4.96 M308.93 -14.52 C317.75 -10.41, 325.29 -7.53, 337.75 -3.05" stroke="#000000" stroke-width="1" fill="none"></path></g></g><g transform="translate(206.61171271029298 142.6891557641584) rotate(0 65 10)"><text x="0" y="14" font-family="Virgil, Segoe UI Emoji" font-size="16px" fill="#000000" text-anchor="start" style="white-space: pre;" direction="ltr">Create new user</text></g><g stroke-linecap="round"><g transform="translate(464.611712710293 198.6891557641584) rotate(0 152.70442895863675 -1.179737647441243)"><path d="M0.33 0.28 C51.26 0, 254.32 -2.14, 305.08 -2.64" stroke="#000000" stroke-width="1.5" fill="none" stroke-dasharray="8 9"></path></g><g transform="translate(464.611712710293 198.6891557641584) rotate(0 152.70442895863675 -1.179737647441243)"><path d="M277.47 6.83 C283.56 3.72, 290.72 2.18, 303.25 -3.15" stroke="#000000" stroke-width="1.5" fill="none"></path></g><g transform="translate(464.611712710293 198.6891557641584) rotate(0 152.70442895863675 -1.179737647441243)"><path d="M277.26 -13.69 C283.25 -11.49, 290.46 -7.72, 303.25 -3.15" stroke="#000000" stroke-width="1.5" fill="none"></path></g></g><g stroke-linecap="round" transform="translate(775.611712710293 109.68915576415839) rotate(0 9 97.5)"><path d="M-0.89 1.05 C4.86 -1.43, 13.76 0.41, 18.47 -0.03 M-0.32 -0.69 C5.75 -0.03, 11.16 0.36, 18.82 -0.03 M16.77 0.82 C16.43 71.64, 20.16 141.94, 19.07 194.4 M17.98 0.14 C19.24 72.11, 18.57 145.5, 17.05 194.69 M16.38 194.59 C11.82 196.46, 3.29 193.22, 1.1 194.08 M17.24 195.57 C10.6 194.63, 3.88 194.73, -0.2 194.21 M0.26 193.78 C-1.46 142.61, -3.28 91.57, 1.34 1.24 M0.97 195.12 C-1.67 134.61, -1.31 71.77, -0.06 -0.63" stroke="#000000" stroke-width="1" fill="none"></path></g><g stroke-linecap="round"><g transform="translate(847.611712710293 211.6891557641584) rotate(0 -26.686826446908526 0.4331108014937399)"><path d="M1.14 0.55 C-8.01 0.69, -44.58 0.11, -54.06 0.04 M0.28 -0.2 C-9.02 0.12, -45.6 0.88, -54.52 1.07" stroke="#000000" stroke-width="1" fill="none"></path></g><g transform="translate(847.611712710293 211.6891557641584) rotate(0 -26.686826446908526 0.4331108014937399)"><path d="M-27.95 -7.32 C-40.07 -6.14, -49.52 0.59, -54.38 2.8 M-28.57 -9.73 C-37.35 -6.21, -47.41 -2.58, -55.22 0.58" stroke="#000000" stroke-width="1" fill="none"></path></g><g transform="translate(847.611712710293 211.6891557641584) rotate(0 -26.686826446908526 0.4331108014937399)"><path d="M-27.55 11.49 C-39.7 5.68, -49.3 5.42, -54.38 2.8 M-28.17 9.08 C-37.22 5.99, -47.42 3.01, -55.22 0.58" stroke="#000000" stroke-width="1" fill="none"></path></g></g><g stroke-linecap="round"><g transform="translate(795.611712710293 187.6891557641584) rotate(0 26.079777914029563 -0.1226751200202898)"><path d="M0.19 -1.01 C9.15 -0.74, 44.35 0.4, 53.33 0.53 M-1.17 1.07 C7.7 1.08, 43.38 -1.29, 52.56 -1.32" stroke="#000000" stroke-width="1" fill="none"></path></g></g><g stroke-linecap="round"><g transform="translate(846.611712710293 186.6891557641584) rotate(0 0.8915387094020844 11.56504154801371)"><path d="M-0.28 -0.85 C-0.12 3.29, 1.56 19.95, 2.07 23.98 M1.77 1.31 C1.69 5.21, 1.05 18.46, 1.15 22.38" stroke="#000000" stroke-width="1" fill="none"></path></g></g><g stroke-linecap="round"><g transform="translate(774.611712710293 278.6891557641584) rotate(0 -154.25109396576883 0.2577933081149979)"><path d="M-0.97 0.43 C-52.38 0.56, -256.6 0.25, -307.53 0.05" stroke="#000000" stroke-width="1.5" fill="none" stroke-dasharray="8 9"></path></g><g transform="translate(774.611712710293 278.6891557641584) rotate(0 -154.25109396576883 0.2577933081149979)"><path d="M-278.6 -11.03 C-288.22 -5.77, -300.18 -2.63, -305.57 0.49" stroke="#000000" stroke-width="1.5" fill="none"></path></g><g transform="translate(774.611712710293 278.6891557641584) rotate(0 -154.25109396576883 0.2577933081149979)"><path d="M-278.65 9.5 C-288.13 7.04, -300.07 2.47, -305.57 0.49" stroke="#000000" stroke-width="1.5" fill="none"></path></g></g><g transform="translate(498.611712710293 168.6891557641584) rotate(0 118.5 10)"><text x="0" y="14" font-family="Virgil, Segoe UI Emoji" font-size="16px" fill="#000000" text-anchor="start" style="white-space: pre;" direction="ltr">Check there is no such a login</text></g><g stroke-linecap="round"><g transform="translate(454.611712710293 71.68915576415839) rotate(0 0.3862972319125788 16.653681653738033)"><path d="M1.07 0.94 C0.84 6.42, -0.16 26.97, -0.3 32.37" stroke="#000000" stroke-width="1.5" fill="none" stroke-dasharray="8 9"></path></g></g><g stroke-linecap="round"><g transform="translate(453.611712710293 562.6891557641584) rotate(0 0.07459107041358948 9.385559934377667)"><path d="M0.45 -0.82 C0.5 2.52, -0.13 16, -0.3 19.59" stroke="#000000" stroke-width="1.5" fill="none" stroke-dasharray="8 9"></path></g></g><g stroke-linecap="round"><g transform="translate(787.611712710293 304.6891557641584) rotate(0 0.5641199171543008 140.432520955801)"><path d="M-1.2 -0.18 C-0.82 46.85, 1.64 234.48, 2.33 281.04" stroke="#000000" stroke-width="1.5" fill="none" stroke-dasharray="8 9"></path></g></g><g stroke-linecap="round"><g transform="translate(784.611712710293 108.68915576415839) rotate(0 -0.28371428017615585 -18.930512231588352)"><path d="M-0.03 1.11 C-0.27 -5.23, -0.62 -32.23, -0.52 -38.97" stroke="#000000" stroke-width="1.5" fill="none" stroke-dasharray="8 9"></path></g></g><g stroke-linecap="round"><g transform="translate(52.61171271029298 343.6891557641584) rotate(0 411.42762784361844 -2.4763606965541953)"><path d="M-1.02 0.92 C136.22 0.12, 686.46 -4.48, 823.88 -5.87" stroke="#000000" stroke-width="1.5" fill="none" stroke-dasharray="8 9"></path></g></g><g transform="translate(536.611712710293 246.6891557641584) rotate(0 67.5 10)"><text x="0" y="14" font-family="Virgil, Segoe UI Emoji" font-size="16px" fill="#000000" text-anchor="start" style="white-space: pre;" direction="ltr">Login is available</text></g><g stroke-linecap="round"><g transform="translate(444.611712710293 311.6891557641584) rotate(0 -168.02227610945704 0.009920400381076888)"><path d="M-0.02 -0.62 C-56.1 -0.63, -280.39 0.58, -336.02 0.64" stroke="#000000" stroke-width="1.5" fill="none" stroke-dasharray="8 9"></path></g><g transform="translate(444.611712710293 311.6891557641584) rotate(0 -168.02227610945704 0.009920400381076888)"><path d="M-308.9 -11.42 C-316.27 -4.29, -327.33 -0.85, -336.96 -0.41" stroke="#000000" stroke-width="1.5" fill="none"></path></g><g transform="translate(444.611712710293 311.6891557641584) rotate(0 -168.02227610945704 0.009920400381076888)"><path d="M-308.83 9.1 C-316.34 9.29, -327.43 5.79, -336.96 -0.41" stroke="#000000" stroke-width="1.5" fill="none"></path></g></g><g transform="translate(193.61171271029298 281.6891557641584) rotate(0 74 10)"><text x="0" y="14" font-family="Virgil, Segoe UI Emoji" font-size="16px" fill="#000000" text-anchor="start" style="white-space: pre;" direction="ltr"> Profile is created</text></g><g stroke-linecap="round"><g transform="translate(784.611712710293 426.6891557641584) rotate(0 -159.79124899506573 2.119759184122074)"><path d="M0.8 1.11 C-52.54 1.45, -266.81 2.51, -320.38 3.13" stroke="#000000" stroke-width="1.5" fill="none" stroke-dasharray="8 9"></path></g><g transform="translate(784.611712710293 426.6891557641584) rotate(0 -159.79124899506573 2.119759184122074)"><path d="M-290.43 -6.32 C-301.3 -3.68, -306.13 0.41, -321.69 4.21" stroke="#000000" stroke-width="1.5" fill="none"></path></g><g transform="translate(784.611712710293 426.6891557641584) rotate(0 -159.79124899506573 2.119759184122074)"><path d="M-290.27 14.2 C-301.37 11.24, -306.24 9.72, -321.69 4.21" stroke="#000000" stroke-width="1.5" fill="none"></path></g></g><g transform="translate(541.611712710293 399.6891557641584) rotate(0 84 10)"><text x="0" y="14" font-family="Virgil, Segoe UI Emoji" font-size="16px" fill="#000000" text-anchor="start" style="white-space: pre;" direction="ltr">Login is not available</text></g><g transform="translate(505.611712710293 104.68915576415839) rotate(0 112.5 10)"><text x="0" y="14" font-family="Virgil, Segoe UI Emoji" font-size="16px" fill="#000000" text-anchor="start" style="white-space: pre;" direction="ltr">The login doesn't exist in db</text></g><g stroke-linecap="round"><g transform="translate(446.611712710293 474.6891557641584) rotate(0 -168.77076082825658 2.004059225320816)"><path d="M-1.03 0.23 C-56.96 0.69, -280.51 3.26, -336.51 3.78" stroke="#000000" stroke-width="1.5" fill="none" stroke-dasharray="8 9"></path></g><g transform="translate(446.611712710293 474.6891557641584) rotate(0 -168.77076082825658 2.004059225320816)"><path d="M-308.05 -5.95 C-313.17 -4.72, -320.04 -2, -338.45 4.16" stroke="#000000" stroke-width="1.5" fill="none"></path></g><g transform="translate(446.611712710293 474.6891557641584) rotate(0 -168.77076082825658 2.004059225320816)"><path d="M-307.83 14.57 C-313.17 11.31, -320.1 9.56, -338.45 4.16" stroke="#000000" stroke-width="1.5" fill="none"></path></g></g><g transform="translate(518.611712710293 345.6891557641584) rotate(0 84.5 10)"><text x="0" y="14" font-family="Virgil, Segoe UI Emoji" font-size="16px" fill="#000000" text-anchor="start" style="white-space: pre;" direction="ltr">The login exists in db</text></g><g transform="translate(161.61171271029298 422.6891557641584) rotate(0 86 20)"><text x="0" y="14" font-family="Virgil, Segoe UI Emoji" font-size="16px" fill="#000000" text-anchor="start" style="white-space: pre;" direction="ltr">Select another login /</text><text x="0" y="34" font-family="Virgil, Segoe UI Emoji" font-size="16px" fill="#000000" text-anchor="start" style="white-space: pre;" direction="ltr">restore the password</text></g></svg>