<svg version="1.1" xmlns="http://www.w3.org/2000/svg" viewBox="0 0 888.6117432278711 602.2147846497852" width="888.6117432278711" height="602.2147846497852">
  <!-- svg-source:excalidraw -->
  
  <defs>
    <style>
      @font-face {
        font-family: "Virgil";
        src: url("https://excalidraw.com/Virgil.woff2");
      }
      @font-face {
        font-family: "Cascadia";
        src: url("https://excalidraw.com/Cascadia.woff2");
      }
    </style>
  </defs>
  <rect x="0" y="0" width="888.6117432278711" height="602.2147846497852" fill="#ffffff"></rect><g stroke-linecap="round" transform="translate(353.2455574389586 13.488267860152746) rotate(0 103.25272866049966 27.906142881216113)"><path d="M-0.74 1.53 C47.45 1.85, 92.24 1.99, 207.28 0.12 M-0.19 -0.56 C54.07 -1.98, 107.86 -0.88, 207.26 -0.72 M207.68 -1.72 C205.32 15.21, 206.01 33.02, 205.01 54.58 M205.79 -0.67 C205.63 21.38, 205.45 44.03, 206.61 55.15 M206.39 56.98 C159.46 58.73, 114.39 59.12, 1.14 54.3 M207.04 56.3 C135.89 58.07, 66.82 57.63, 0.25 55.82 M1.96 56.23 C-1.66 42.53, 1.48 28.38, -0.43 1.98 M0.91 55.44 C-0.02 34.5, 0.44 13.64, 0.46 0.73" stroke="#000000" stroke-width="1" fill="none"></path></g><g stroke-linecap="round" transform="translate(681.8403898652784 10) rotate(0 93.83440543808914 29.301450025276893)"><path d="M-1.63 1.67 C69.92 -2.86, 138.08 -2.01, 189.4 1.2 M0.82 0.26 C66.91 -1.41, 132.78 -1.62, 187.82 0.98 M189.04 0.61 C186.72 20.79, 188.74 35.66, 185.81 60.43 M187.56 0.18 C187.8 16.16, 187.84 30.93, 188.53 58.49 M186.09 57.02 C127.47 57.24, 68.68 58.57, 0.19 57.71 M187.59 58.31 C129.17 59.36, 70.23 59.81, -0.18 58.83 M1.12 56.91 C0.32 34.07, 2.12 10.27, 0.17 0.88 M-0.58 59.48 C-0.29 45.98, -0.02 34.42, 0.91 -0.52" stroke="#000000" stroke-width="1" fill="none"></path></g><g transform="translate(751.6057470683184 26.743685728729815) rotate(0 11.860110724516858 8.720669650380046)"><text x="0" y="12.44133930076006" font-family="Virgil, Segoe UI Emoji" font-size="13.95307144060805px" fill="#000000" text-anchor="start" style="white-space: pre;" direction="ltr">DB</text></g><g transform="translate(438.24376463357316 34.53430001685092) rotate(0 21.5 8.5)"><text x="0" y="12" font-family="Virgil, Segoe UI Emoji" font-size="13.953071440608047px" fill="#000000" text-anchor="start" style="white-space: pre;" direction="ltr">Server</text></g><g stroke-linecap="round" transform="translate(10 19.767150008426142) rotate(0 96.62501972621078 27.557316095200918)"><path d="M0.99 -1.82 C52.43 3.34, 100.9 0.74, 192.07 0.7 M-0.73 0.35 C67.45 0.18, 136.15 0.59, 193.75 0.7 M194.65 -1.2 C194.1 16.55, 194.6 36.44, 193.01 55.4 M193.82 0.48 C193.26 15.32, 194.52 29.59, 193 55.23 M194.61 55.05 C143.27 53.47, 92.8 51.6, 0.74 55.96 M192.41 54.84 C153.8 54.81, 114.44 53.76, 0.51 55.21 M1.25 56.41 C0.49 42.46, -0.12 31.2, -0.92 0.61 M-0.5 55.84 C0.34 33.9, 0.67 12.22, -0.01 0.77" stroke="#000000" stroke-width="1" fill="none"></path></g><g transform="translate(94.4160822156789 37.20848930918578) rotate(0 8.023016078349656 8.720669650380046)"><text x="0" y="12.44133930076006" font-family="Virgil, Segoe UI Emoji" font-size="13.953071440608047px" fill="#000000" text-anchor="start" style="white-space: pre;" direction="ltr">UI</text></g><g stroke-linecap="round"><g transform="translate(109.58301751558679 74.1066554020233) rotate(0 -0.6022287057542144 12.835591490019794)"><path d="M-1.09 -0.4 C-1.29 3.84, -0.06 21.78, -0.1 26.07" stroke="#000000" stroke-width="1.5" fill="none" stroke-dasharray="8 9"></path></g></g><g stroke-linecap="round" transform="translate(49.6117432278711 93.68915576415839) rotate(0 414.5 246.5)"><path d="M0.25 0.77 C226.98 2.76, 454.61 2.22, 829.68 0.28 M-0.38 -0.17 C280.05 1.25, 560.85 1.07, 828.84 0.1 M829.39 0.72 C829.76 169.79, 828.38 341.19, 829.28 492.44 M829.14 -0.24 C828.85 170.43, 828.65 340.35, 828.82 492.64 M829.26 492.55 C636.4 489.91, 443.1 490.89, -0.18 493.29 M828.69 493.21 C508.28 494.94, 187.12 494.77, -0.2 493.36 M0.02 492.27 C1 305.02, 2.16 115.89, 0.75 0.13 M-0.3 492.6 C-1.65 350.48, -1.42 208.16, -0.23 0.4" stroke="#000000" stroke-width="1" fill="none"></path></g><g stroke-linecap="round"><g transform="translate(454.611712710293 71.68915576415839) rotate(0 0.3862972319125788 16.653681653738033)"><path d="M1.07 0.94 C0.84 6.42, -0.16 26.97, -0.3 32.37" stroke="#000000" stroke-width="1.5" fill="none" stroke-dasharray="8 9"></path></g></g><g stroke-linecap="round" transform="translate(100.61171271029298 104.68915576415839) rotate(0 10 228)"><path d="M-1.15 -0.41 C4.26 1.84, 8.39 0.57, 21.89 1.01 M-0.46 0.17 C5.09 -0.13, 10.48 -0.96, 20.08 0.11 M19.2 0.17 C20.61 152.71, 20.58 303.45, 19.37 456.91 M19.58 0.2 C18.59 122.59, 18.68 246.18, 19.73 455.9 M21.93 457.64 C12.63 455.25, 6.26 455.75, 0.26 455.46 M19.12 455.08 C13.5 455.44, 7.71 456.15, 0.46 456.3 M0.32 455.43 C2.25 341.34, 2.39 225.22, -0.68 0.8 M0.35 455.68 C-1.98 291.03, -2.38 126.18, -0.21 0.39" stroke="#000000" stroke-width="1" fill="none"></path></g><g stroke-linecap="round" transform="translate(444.611712710293 107.68915576415839) rotate(0 9 224)"><path d="M1.77 0.21 C5.46 -1.32, 8.76 -0.17, 17.03 0.35 M-0.33 -0.58 C4.19 0.75, 10.04 -0.32, 17.9 0.51 M18.23 0.78 C18.59 149.89, 19.7 298.73, 17.66 447.04 M18.3 0.38 C17.39 139.31, 17.01 279.06, 17.66 448.39 M17.81 449.39 C14.52 447.46, 9.86 446.95, 0.51 449.4 M18.73 447.67 C12 448.82, 8.25 448.87, -0.03 447.65 M-0.06 448.46 C2.36 295.53, 2.68 141.89, 0.45 -0.05 M-0.14 447.7 C-1.36 303.93, -1.81 160.14, 0.31 0.08" stroke="#000000" stroke-width="1" fill="none"></path></g><g stroke-linecap="round" transform="translate(774.611712710293 110.68915576415839) rotate(0 9 134.5)"><path d="M-1.27 -1.15 C6.81 1.38, 13.09 1.77, 16.34 -1.53 M-0.25 -0.72 C6.42 0.02, 12.51 0.53, 18.59 -0.4 M17.8 -0.95 C15.11 90.57, 15.4 183.97, 18.87 270.46 M17.58 -0.34 C18.87 93.42, 18.38 186.95, 17.66 268.47 M17.22 267.73 C15.15 268.35, 9.44 270.67, -1.68 268.09 M18.72 268.18 C10.94 268.22, 3.53 268.07, 0.57 268.83 M1.45 267.54 C-1.86 200.75, -1.11 132.38, -0.72 -0.65 M0.07 269.25 C-1.11 178.58, -0.35 87.11, 0.14 0.35" stroke="#000000" stroke-width="1" fill="none"></path></g><g stroke-linecap="round"><g transform="translate(795.611712710293 192.6891557641584) rotate(0 26.013528618216526 0.28867101348470214)"><path d="M-0.58 0.27 C8.21 0.48, 43.63 1.25, 52.61 1.41 M1.32 -0.64 C9.92 -0.8, 42.89 -1.05, 51.45 -0.5" stroke="#000000" stroke-width="1" fill="none"></path></g></g><g stroke-linecap="round"><g transform="translate(851.611712710293 224.6891557641584) rotate(0 -0.8545281926496102 -16.765197595953907)"><path d="M0.63 -0.02 C0.23 -5.46, -1.11 -27.93, -1.25 -33.51 M-0.5 -1.08 C-1.18 -6.29, -2.32 -27.01, -2.34 -32.24" stroke="#000000" stroke-width="1" fill="none"></path></g></g><g stroke-linecap="round"><g transform="translate(849.611712710293 223.6891557641584) rotate(0 -28.651979329576704 -2.4248371626483163)"><path d="M-0.68 -0.41 C-10.21 -0.91, -47.98 -2.15, -57.34 -2.55 M1.16 -1.66 C-8.55 -2.58, -48.69 -4.48, -58.46 -4.44" stroke="#000000" stroke-width="1" fill="none"></path></g><g transform="translate(849.611712710293 223.6891557641584) rotate(0 -28.651979329576704 -2.4248371626483163)"><path d="M-32.07 -14.04 C-38.38 -10.74, -46.66 -9.31, -60.12 -4.38 M-30.64 -13.21 C-40.59 -10.78, -52.4 -6.53, -58.64 -3.93" stroke="#000000" stroke-width="1" fill="none"></path></g><g transform="translate(849.611712710293 223.6891557641584) rotate(0 -28.651979329576704 -2.4248371626483163)"><path d="M-32.59 5.47 C-38.83 3.17, -46.96 -0.99, -60.12 -4.38 M-31.17 6.31 C-41.02 1.48, -52.64 -1.54, -58.64 -3.93" stroke="#000000" stroke-width="1" fill="none"></path></g></g><g stroke-linecap="round"><g transform="translate(783.611712710293 70.68915576415839) rotate(0 0.47744941270352115 19.236557260155678)"><path d="M0.17 -0.68 C0.25 5.85, 0.95 32.4, 0.75 39.15" stroke="#000000" stroke-width="1.5" fill="none" stroke-dasharray="8 9"></path></g></g><g stroke-linecap="round"><g transform="translate(784.8855981660206 381.0139891900379) rotate(0 1.0171503141522464 105.2628144428134)"><path d="M-0.73 -0.68 C-0.4 34.33, 2.35 175.66, 2.76 211.2" stroke="#000000" stroke-width="1.5" fill="none" stroke-dasharray="8 9"></path></g></g><g stroke-linecap="round"><g transform="translate(120.61171271029298 168.6891557641584) rotate(0 162.68720051751006 -0.3528457790613402)"><path d="M0.57 0.54 C54.88 0.22, 271.57 -0.9, 325.97 -1.25 M-0.6 -0.22 C53.56 -0.43, 270.45 0.21, 325.01 0.16" stroke="#000000" stroke-width="1" fill="none"></path></g><g transform="translate(120.61171271029298 168.6891557641584) rotate(0 162.68720051751006 -0.3528457790613402)"><path d="M297.71 10.34 C304.94 8.79, 313.05 4.94, 323.7 -0.35 M296.21 10.8 C304.15 8, 310.43 6.92, 325.99 0.78" stroke="#000000" stroke-width="1" fill="none"></path></g><g transform="translate(120.61171271029298 168.6891557641584) rotate(0 162.68720051751006 -0.3528457790613402)"><path d="M297.73 -10.18 C305.07 -5.47, 313.18 -3.07, 323.7 -0.35 M296.24 -9.73 C304.01 -7.91, 310.29 -4.37, 325.99 0.78" stroke="#000000" stroke-width="1" fill="none"></path></g></g><g stroke-linecap="round"><g transform="translate(462.32599842457864 194.19178178660331) rotate(0 155.1131228946713 -2.5633805636880425)"><path d="M-0.7 -0.16 C51.24 -0.94, 259.12 -4.39, 310.92 -4.97 M1.14 -1.29 C52.97 -1.93, 258.01 -3.2, 309.9 -3.95" stroke="#000000" stroke-width="1" fill="none"></path></g><g transform="translate(462.32599842457864 194.19178178660331) rotate(0 155.1131228946713 -2.5633805636880425)"><path d="M281.54 6.34 C286.96 2.58, 296 0.09, 310.94 -1.96 M282.32 6.39 C290.29 2.74, 299.24 -0.49, 309.07 -3.7" stroke="#000000" stroke-width="1" fill="none"></path></g><g transform="translate(462.32599842457864 194.19178178660331) rotate(0 155.1131228946713 -2.5633805636880425)"><path d="M281.34 -14.18 C286.77 -12.99, 295.85 -10.53, 310.94 -1.96 M282.12 -14.13 C290.26 -11.59, 299.26 -8.62, 309.07 -3.7" stroke="#000000" stroke-width="1" fill="none"></path></g></g><g stroke-linecap="round"><g transform="translate(764.976276862142 233.38972677525692) rotate(0 -153.57611448828663 1.865337363584672)"><path d="M0.79 0.65 C-50.7 1.17, -256.56 2.84, -307.95 3.08" stroke="#000000" stroke-width="1.5" fill="none" stroke-dasharray="8 9"></path></g><g transform="translate(764.976276862142 233.38972677525692) rotate(0 -153.57611448828663 1.865337363584672)"><path d="M-278.74 -6.67 C-289.3 -1.77, -301.66 -0.72, -309.64 2.8" stroke="#000000" stroke-width="1.5" fill="none"></path></g><g transform="translate(764.976276862142 233.38972677525692) rotate(0 -153.57611448828663 1.865337363584672)"><path d="M-278.61 13.85 C-289.2 10.89, -301.62 4.07, -309.64 2.8" stroke="#000000" stroke-width="1.5" fill="none"></path></g></g><g transform="translate(530.611712710293 99.68915576415839) rotate(0 69.5 10)"><text x="0" y="14" font-family="Virgil, Segoe UI Emoji" font-size="16px" fill="#000000" text-anchor="start" style="white-space: pre;" direction="ltr">Password restore</text></g><g stroke-linecap="round"><g transform="translate(57.61171271029298 386.6891557641584) rotate(0 409.4317594200373 -3.141035380959522)"><path d="M0 -1.15 C136.38 -2.16, 682.05 -4.52, 818.86 -5.13" stroke="#000000" stroke-width="1.5" fill="none" stroke-dasharray="8 9"></path></g></g><g transform="translate(520.611712710293 391.6891557641584) rotate(0 95.5 10)"><text x="0" y="14" font-family="Virgil, Segoe UI Emoji" font-size="16px" fill="#000000" text-anchor="start" style="white-space: pre;" direction="ltr">Password restore failed</text></g><g stroke-linecap="round"><g transform="translate(789.611712710293 507.6891557641584) rotate(0 -162.7113862365484 -0.32502442896364414)"><path d="M0.63 0.46 C-53.78 0.21, -271.47 -1.22, -326.05 -1.11" stroke="#000000" stroke-width="1.5" fill="none" stroke-dasharray="8 9"></path></g><g transform="translate(789.611712710293 507.6891557641584) rotate(0 -162.7113862365484 -0.32502442896364414)"><path d="M-297.06 -11.38 C-309.11 -9.16, -314.84 -3.68, -327.61 -0.48" stroke="#000000" stroke-width="1.5" fill="none"></path></g><g transform="translate(789.611712710293 507.6891557641584) rotate(0 -162.7113862365484 -0.32502442896364414)"><path d="M-297.12 9.14 C-309.21 4.48, -314.92 3.1, -327.61 -0.48" stroke="#000000" stroke-width="1.5" fill="none"></path></g></g><g stroke-linecap="round"><g transform="translate(440.611712710293 526.6891557641584) rotate(0 -159.2282562583685 0.1421522945165492)"><path d="M-0.21 -0.51 C-53.39 -0.39, -265.07 0.82, -318.24 0.8" stroke="#000000" stroke-width="1.5" fill="none" stroke-dasharray="8 9"></path></g><g transform="translate(440.611712710293 526.6891557641584) rotate(0 -159.2282562583685 0.1421522945165492)"><path d="M-290.94 -8.29 C-299.08 -6.29, -311.83 -2.38, -318.22 -0.04" stroke="#000000" stroke-width="1.5" fill="none"></path></g><g transform="translate(440.611712710293 526.6891557641584) rotate(0 -159.2282562583685 0.1421522945165492)"><path d="M-290.88 12.23 C-299.05 6.71, -311.82 3.09, -318.22 -0.04" stroke="#000000" stroke-width="1.5" fill="none"></path></g></g><g transform="translate(161.61171271029298 139.6891557641584) rotate(0 118 10)"><text x="0" y="14" font-family="Virgil, Segoe UI Emoji" font-size="16px" fill="#000000" text-anchor="start" style="white-space: pre;" direction="ltr">Request the answer with login</text></g><g transform="translate(518.611712710293 164.6891557641584) rotate(0 91.5 10)"><text x="0" y="14" font-family="Virgil, Segoe UI Emoji" font-size="16px" fill="#000000" text-anchor="start" style="white-space: pre;" direction="ltr">Find the user with login</text></g><g transform="translate(526.611712710293 477.6891557641584) rotate(0 104 10)"><text x="0" y="14" font-family="Virgil, Segoe UI Emoji" font-size="16px" fill="#000000" text-anchor="start" style="white-space: pre;" direction="ltr">The answer is not correct</text></g><g transform="translate(168.61171271029298 497.6891557641584) rotate(0 109 10)"><text x="0" y="14" font-family="Virgil, Segoe UI Emoji" font-size="16px" fill="#000000" text-anchor="start" style="white-space: pre;" direction="ltr">    Can't restore password</text></g><g stroke-linecap="round"><g transform="translate(455.611712710293 557.6891557641584) rotate(0 -0.33944875299926025 13.369243970513338)"><path d="M0.29 1.06 C0.02 5.27, -0.8 21.58, -0.97 25.68" stroke="#000000" stroke-width="1.5" fill="none" stroke-dasharray="8 9"></path></g></g><g stroke-linecap="round"><g transform="translate(112.61171271029298 560.6891557641584) rotate(0 -0.42102462351317627 11.42039839327336)"><path d="M0.24 -0.38 C0.21 3.53, -1.2 19.14, -1.08 23.22" stroke="#000000" stroke-width="1.5" fill="none" stroke-dasharray="8 9"></path></g></g><g transform="translate(517.611712710293 210.6891557641584) rotate(0 99.5 10)"><text x="0" y="14" font-family="Virgil, Segoe UI Emoji" font-size="16px" fill="#000000" text-anchor="start" style="white-space: pre;" direction="ltr">Send the secret question</text></g><g stroke-linecap="round"><g transform="translate(786.3058716139356 455.8445778820792) rotate(0 -161.17568951658905 1.1913447301834879)"><path d="M1.18 0.4 C-52.64 0.65, -269.22 1.82, -323.53 1.98" stroke="#000000" stroke-width="1.5" fill="none" stroke-dasharray="8 9"></path></g><g transform="translate(786.3058716139356 455.8445778820792) rotate(0 -161.17568951658905 1.1913447301834879)"><path d="M-294.72 -7.62 C-300.63 -6.68, -308.52 -1.1, -324.95 3.21" stroke="#000000" stroke-width="1.5" fill="none"></path></g><g transform="translate(786.3058716139356 455.8445778820792) rotate(0 -161.17568951658905 1.1913447301834879)"><path d="M-294.63 12.9 C-300.64 8.79, -308.55 9.33, -324.95 3.21" stroke="#000000" stroke-width="1.5" fill="none"></path></g></g><g transform="translate(555.3058716139356 430.8445778820792) rotate(0 70 10)"><text x="0" y="14" font-family="Virgil, Segoe UI Emoji" font-size="16px" fill="#000000" text-anchor="start" style="white-space: pre;" direction="ltr">User is not found</text></g><g stroke-linecap="round"><g transform="translate(444.30587161393555 252.8445778820792) rotate(0 -164.70740829296415 0.7942903298884403)"><path d="M-1.11 -0.44 C-56.02 -0.17, -273.61 1.57, -328.31 2.03" stroke="#000000" stroke-width="1.5" fill="none" stroke-dasharray="8 9"></path></g><g transform="translate(444.30587161393555 252.8445778820792) rotate(0 -164.70740829296415 0.7942903298884403)"><path d="M-300.93 -7.31 C-311.33 -5.06, -322.08 0.37, -327.74 3.05" stroke="#000000" stroke-width="1.5" fill="none"></path></g><g transform="translate(444.30587161393555 252.8445778820792) rotate(0 -164.70740829296415 0.7942903298884403)"><path d="M-300.77 13.21 C-311.3 7.28, -322.12 4.53, -327.74 3.05" stroke="#000000" stroke-width="1.5" fill="none"></path></g></g><g transform="translate(163.30587161393555 226.8445778820792) rotate(0 121 10)"><text x="0" y="14" font-family="Virgil, Segoe UI Emoji" font-size="16px" fill="#000000" text-anchor="start" style="white-space: pre;" direction="ltr">User gets the secret question</text></g><g stroke-linecap="round"><g transform="translate(124.30587161393555 301.8445778820792) rotate(0 161.91003518597222 -0.43928744383157436)"><path d="M0.39 0.19 C54.42 -0.16, 270.75 -0.94, 324.69 -1.07 M-0.87 -0.75 C53.02 -0.47, 270.08 -0.29, 324.1 -0.1" stroke="#000000" stroke-width="1" fill="none"></path></g><g transform="translate(124.30587161393555 301.8445778820792) rotate(0 161.91003518597222 -0.43928744383157436)"><path d="M296.21 11.25 C303.71 6.55, 314.19 3.07, 322.28 -1.49 M296.55 11.01 C302.19 8.7, 309.62 4.69, 323.57 0.36" stroke="#000000" stroke-width="1" fill="none"></path></g><g transform="translate(124.30587161393555 301.8445778820792) rotate(0 161.91003518597222 -0.43928744383157436)"><path d="M296.25 -9.27 C303.91 -6.92, 314.38 -3.35, 322.28 -1.49 M296.59 -9.51 C302.14 -7.1, 309.56 -6.38, 323.57 0.36" stroke="#000000" stroke-width="1" fill="none"></path></g></g><g transform="translate(220.30587161393555 277.8445778820792) rotate(0 64.5 10)"><text x="0" y="14" font-family="Virgil, Segoe UI Emoji" font-size="16px" fill="#000000" text-anchor="start" style="white-space: pre;" direction="ltr">Send the answer</text></g><g stroke-linecap="round"><g transform="translate(467.6308166341664 316.15493087906464) rotate(0 152.90460648499436 0.2176182781187208)"><path d="M0.16 1.15 C50.99 0.89, 254.84 -0.5, 305.65 -0.71" stroke="#000000" stroke-width="1.5" fill="none" stroke-dasharray="8 9"></path></g><g transform="translate(467.6308166341664 316.15493087906464) rotate(0 152.90460648499436 0.2176182781187208)"><path d="M279.43 9.03 C287.24 4.19, 298.12 4.12, 306.52 0.79" stroke="#000000" stroke-width="1.5" fill="none"></path></g><g transform="translate(467.6308166341664 316.15493087906464) rotate(0 152.90460648499436 0.2176182781187208)"><path d="M279.31 -11.49 C287.3 -9.07, 298.23 -1.86, 306.52 0.79" stroke="#000000" stroke-width="1.5" fill="none"></path></g></g><g transform="translate(558.3058716139356 288.8445778820792) rotate(0 68.5 10)"><text x="0" y="14" font-family="Virgil, Segoe UI Emoji" font-size="16px" fill="#000000" text-anchor="start" style="white-space: pre;" direction="ltr">Check the answer</text></g><g stroke-linecap="round"><g transform="translate(772.3058716139356 355.8445778820792) rotate(0 -156.25030110888184 1.015173165127635)"><path d="M-0.92 0.63 C-52.75 0.72, -259.77 1.28, -311.58 1.4" stroke="#000000" stroke-width="1.5" fill="none" stroke-dasharray="8 9"></path></g><g transform="translate(772.3058716139356 355.8445778820792) rotate(0 -156.25030110888184 1.015173165127635)"><path d="M-282.36 -8.24 C-289.72 -6.19, -296.91 -3.52, -311.02 1.14" stroke="#000000" stroke-width="1.5" fill="none"></path></g><g transform="translate(772.3058716139356 355.8445778820792) rotate(0 -156.25030110888184 1.015173165127635)"><path d="M-282.31 12.29 C-289.83 9.21, -297.03 6.75, -311.02 1.14" stroke="#000000" stroke-width="1.5" fill="none"></path></g></g><g transform="translate(556.3058716139356 330.8445778820792) rotate(0 87 10)"><text x="0" y="14" font-family="Virgil, Segoe UI Emoji" font-size="16px" fill="#000000" text-anchor="start" style="white-space: pre;" direction="ltr">The answer is correct</text></g><g stroke-linecap="round"><g transform="translate(444.30587161393555 363.8445778820792) rotate(0 -161.87599329762168 0.8275305073708239)"><path d="M-0.53 0.36 C-54.28 0.4, -269.25 1.36, -323.22 1.29" stroke="#000000" stroke-width="1.5" fill="none" stroke-dasharray="8 9"></path></g><g transform="translate(444.30587161393555 363.8445778820792) rotate(0 -161.87599329762168 0.8275305073708239)"><path d="M-294.45 -7.72 C-301.13 -7.26, -310 -3, -324.98 2.94" stroke="#000000" stroke-width="1.5" fill="none"></path></g><g transform="translate(444.30587161393555 363.8445778820792) rotate(0 -161.87599329762168 0.8275305073708239)"><path d="M-294.41 12.8 C-301.27 8.41, -310.15 7.83, -324.98 2.94" stroke="#000000" stroke-width="1.5" fill="none"></path></g></g><g transform="translate(181.30587161393555 338.8445778820792) rotate(0 103.5 10)"><text x="0" y="14" font-family="Virgil, Segoe UI Emoji" font-size="16px" fill="#000000" text-anchor="start" style="white-space: pre;" direction="ltr">Password can be restored</text></g></svg>
